<svg id="Layer_1" data-name="Layer 1" xmlns="http://www.w3.org/2000/svg" viewBox="0 0 286.3 141.73"><defs><style>.cls-1{fill:#00e1c7;}.cls-2{fill:#04b5a6;}.cls-3{fill:#203a7f;}</style></defs><title>aposkal_logotype</title><path class="cls-1" d="M276.61,87.8l.52,0C241.41,50,189,19.14,174.3,10.66a57,57,0,0,0-62.3,0C96.71,19.46,40.89,52.34,5.21,92.14h0a13.86,13.86,0,0,0,17.16,21.43h0l.11-.09a13,13,0,0,0,2.15-1.61c7.64-5.67,33.82-24.4,63.58-37.9C106,66,125,59.78,142.06,59.32v-.06S225,36.14,276.61,87.8Z"/><path class="cls-2" d="M198.07,74c29.76,13.5,55.94,32.23,63.58,37.9a13.54,13.54,0,0,0,2.15,1.61l.11.09h0a13.86,13.86,0,0,0,17.16-21.43h0c-1.29-1.44-2.62-2.87-4-4.29l-.24-.25C225.23,35.94,142.05,59.26,142.05,59.26v.06c.36,0,.73,0,1.09,0C160.54,59.5,180,65.78,198.07,74Z"/><path class="cls-3" d="M98.13,128H92.69l-2-5.07H78.2l-2,5.07H70.78l10.5-25.35h6.34ZM80,118.6h8.88l-4.35-10.51h-.18Z"/><path class="cls-3" d="M105.56,134.9h-4.71V110.81a26.17,26.17,0,0,1,2.5-.84,22.32,22.32,0,0,1,5.65-.79c6.34,0,10.69,4.34,10.69,9.78s-4.35,9.78-10.69,9.78a13.66,13.66,0,0,1-2.32-.26c-.4-.1-.76-.18-1.12-.29Zm1.12-21.48c-.4.1-.76.18-1.12.29v10.5a9.2,9.2,0,0,0,1.12.25,9.32,9.32,0,0,0,2.32.29,5.8,5.8,0,0,0,0-11.59A13.66,13.66,0,0,0,106.68,113.42Z"/><path class="cls-3" d="M132.37,109.18A9.79,9.79,0,1,1,122.23,119,9.8,9.8,0,0,1,132.37,109.18Zm0,4c-2.9,0-5.25,2.32-5.25,5.8s2.35,5.79,5.25,5.79,5.25-2.31,5.25-5.79S135.27,113.16,132.37,113.16Z"/><path class="cls-3" d="M152.3,128.74a12.47,12.47,0,0,1-5.33-1.27,12.08,12.08,0,0,1-2.1-1.27l1.81-3.26a9.82,9.82,0,0,0,1.6.91,9.71,9.71,0,0,0,4,.9c3.29,0,4.34-1.12,4.34-2.17,0-2.72-10.86-.91-10.86-7.43,0-3,2.93-6,8.15-6a11,11,0,0,1,7.06,2.35l-1.81,3.26a8.47,8.47,0,0,0-1.49-.83,9,9,0,0,0-3.76-.8c-2.36,0-3.26.87-3.26,2,0,2.72,10.86.91,10.86,7.43C161.53,125.66,158.45,128.74,152.3,128.74Z"/><path class="cls-3" d="M169.69,123.67V128H165V102.66h4.71v15h.18l7.61-7.79h5.43l-7.25,7.43L183.82,128h-5.44l-5.61-7.42Z"/><path class="cls-3" d="M202.66,117.15v10.32a25.69,25.69,0,0,1-2.68.65,33.09,33.09,0,0,1-6.2.62c-6.34,0-9.05-2.72-9.05-6.34s2.71-6.34,9.05-6.34a21.83,21.83,0,0,1,3,.18,11.8,11.8,0,0,1,1.2.18c0-2-1.27-3.26-4.17-3.26a11.88,11.88,0,0,0-3.62.62,8,8,0,0,0-1.45.65l-1.81-3.26a11.67,11.67,0,0,1,1.81-1,12.48,12.48,0,0,1,5.07-1C199.61,109.18,202.66,112.22,202.66,117.15Zm-6,7.31a10.58,10.58,0,0,0,1.27-.25v-3.8a9.24,9.24,0,0,0-1.27-.18,21.78,21.78,0,0,0-2.9-.19c-3.08,0-4.16,1.09-4.16,2.36s1.08,2.35,4.16,2.35A15.21,15.21,0,0,0,196.68,124.46Z"/><path class="cls-3" d="M213.35,128h-4.71V106.46h-2.72v-3.8h7.43Z"/></svg>